<svg version="1.1" id="Layer_1" xmlns="http://www.w3.org/2000/svg" xmlns:xlink="http://www.w3.org/1999/xlink" x="0px" y="0px"
	 width="100%" viewBox="0 0 500 162" enable-background="new 0 0 500 162" xml:space="preserve">
<path fill="none" opacity="1.000000" stroke="none" 
	d="
M359.000000,163.000000 
	C239.333328,163.000000 120.166664,163.000000 1.000000,163.000000 
	C1.000000,109.000000 1.000000,55.000000 1.000000,1.000000 
	C167.666672,1.000000 334.333344,1.000000 501.000000,1.000000 
	C501.000000,55.000000 501.000000,109.000000 501.000000,163.000000 
	C453.833344,163.000000 406.666656,163.000000 359.000000,163.000000 
M69.853462,80.499786 
	C69.853462,87.354729 69.853462,94.209679 69.853462,101.064621 
	C67.584938,98.561852 66.391785,95.880554 65.237175,93.182755 
	C59.477650,79.725418 53.942810,66.166344 47.893539,52.840710 
	C44.353321,45.042137 38.301357,42.084198 31.549946,43.777023 
	C23.624399,45.764252 20.153357,50.532539 20.142996,59.575691 
	C20.123348,76.725288 20.130596,93.874924 20.148624,111.024521 
	C20.150284,112.603691 20.309832,114.182686 20.386780,115.591690 
	C25.611813,115.591690 30.177534,115.591690 35.306423,115.591690 
	C35.306423,96.450485 35.306423,77.715668 35.306423,58.980846 
	C42.378407,73.764694 48.637596,88.630020 55.037880,103.434349 
	C56.213737,106.154182 57.659145,108.870697 59.507275,111.163902 
	C63.796616,116.486221 69.041710,117.772942 75.106529,115.475014 
	C81.322372,113.119858 84.133614,109.000641 84.140404,102.089088 
	C84.157753,84.439987 84.153488,66.790848 84.134109,49.141750 
	C84.132339,47.535263 83.959480,45.928967 83.861313,44.240799 
	C79.047653,44.240799 74.668083,44.240799 69.853264,44.240799 
	C69.853264,56.248501 69.853264,67.874199 69.853462,80.499786 
M227.013824,92.499969 
	C227.014725,98.988914 226.875839,105.483353 227.129944,111.962364 
	C227.183273,113.321785 228.700851,115.792229 229.513107,115.779617 
	C243.603104,115.560951 257.770355,115.792831 271.743073,114.282555 
	C279.801361,113.411545 286.001801,107.932877 287.734314,99.172737 
	C289.295959,91.276581 286.044495,85.267082 279.902893,80.519302 
	C279.171753,79.954094 278.606934,79.173691 277.995819,78.525703 
	C278.330536,77.813393 278.438263,77.270653 278.762482,76.940384 
	C285.055847,70.529160 285.518158,63.140926 282.103607,55.326786 
	C278.602966,47.315590 271.451080,44.674114 263.520447,44.093819 
	C257.065704,43.621521 250.549530,43.983284 244.060593,43.984818 
	C231.279861,43.987839 227.071075,48.180107 227.021790,61.051842 
	C226.982910,71.201088 227.013901,81.350601 227.013824,92.499969 
M307.432037,112.189148 
	C316.723663,118.324379 327.241516,117.636658 337.435425,116.710457 
	C348.594757,115.696510 358.610565,106.142235 359.983978,95.144646 
	C361.130157,85.966568 361.459076,76.509422 360.644043,67.309265 
	C359.675232,56.373188 353.351898,48.047855 342.665924,45.013565 
	C335.828766,43.072151 328.295288,43.117798 321.072174,43.101601 
	C307.762726,43.071762 296.034454,55.252892 295.977753,68.552238 
	C295.948608,75.383072 296.334167,82.238052 295.885040,89.039375 
	C295.237854,98.839294 299.565460,105.964745 307.432037,112.189148 
M154.487885,43.925156 
	C140.331696,43.904736 126.174843,43.793381 112.019554,43.896305 
	C102.797691,43.963356 97.758194,49.045029 97.721504,58.093414 
	C97.662758,72.583206 97.648590,87.073715 97.726364,101.563332 
	C97.776840,110.968864 102.874352,115.951164 112.343521,115.988869 
	C123.835434,116.034607 135.327667,115.999954 146.819763,116.000076 
	C149.703201,116.000107 152.586639,116.000084 156.122818,116.000084 
	C154.520065,112.922615 153.184982,110.809097 152.282608,108.524658 
	C150.801620,104.775368 148.410080,103.389183 144.267654,103.600052 
	C136.958298,103.972130 129.616364,103.704170 122.288071,103.704163 
	C119.034256,103.704163 115.780441,103.704170 112.144783,103.704170 
	C112.144783,98.628426 112.286583,94.475288 112.097710,90.337242 
	C111.958900,87.296242 113.103882,86.192894 116.129478,86.255020 
	C122.955208,86.395180 129.785843,86.296379 136.614471,86.295990 
	C147.218414,86.295380 147.220856,86.295547 146.137283,75.512749 
	C146.106735,75.208725 145.889740,74.923447 145.471771,73.978531 
	C134.720490,73.978531 123.667679,73.978531 112.497040,73.978531 
	C112.497040,67.763512 112.497040,62.207226 112.497040,56.142517 
	C114.473877,56.142517 116.100014,56.142548 117.726158,56.142517 
	C127.053078,56.142353 136.380737,56.201035 145.706146,56.082367 
	C147.209366,56.063240 149.454834,55.716095 150.062958,54.725811 
	C152.100540,51.407726 153.551697,47.729530 154.487885,43.925156 
M417.379761,80.339638 
	C424.551941,68.535530 431.724091,56.731426 439.469604,43.983658 
	C436.014252,43.983658 433.680634,44.291477 431.458588,43.924286 
	C425.479797,42.936283 422.122192,45.404961 419.342957,50.736866 
	C415.387299,58.325657 410.414215,65.384094 405.491699,73.285675 
	C404.211731,71.453903 403.324097,70.308342 402.568329,69.081558 
	C398.032837,61.719494 393.568420,54.313133 388.970428,46.990528 
	C388.240875,45.828671 387.006805,44.247780 385.918030,44.174923 
	C381.249939,43.862564 376.548950,44.041710 370.955231,44.041710 
	C376.426544,52.574543 381.242493,60.135517 386.109192,67.663704 
	C393.891327,79.701813 393.859650,79.662186 385.896729,91.666306 
	C380.699890,99.500549 375.660034,107.438942 370.394135,115.571152 
	C385.289642,117.214622 385.293304,117.217018 392.813965,105.740158 
	C393.542450,104.628494 394.147186,103.435432 394.881561,102.328026 
	C398.236511,97.269066 401.617218,92.227180 405.358002,86.626144 
	C407.092957,88.957306 408.359863,90.461494 409.409454,92.104515 
	C413.706390,98.830872 417.872406,105.641869 422.243591,112.318947 
	C423.178864,113.747620 424.685242,115.649826 426.073792,115.779587 
	C430.722717,116.214035 435.437500,115.944427 440.955627,115.944427 
	C432.769928,103.659210 425.213409,92.318275 417.379761,80.339638 
M196.871704,78.500038 
	C196.871704,71.230858 196.871704,63.961685 196.871704,56.048561 
	C204.071152,56.048561 210.621918,56.048561 217.235413,56.048561 
	C217.235413,51.663891 217.235413,47.949348 217.235413,43.861919 
	C209.846710,43.861919 202.868332,43.723530 195.897690,43.896793 
	C187.099487,44.115486 182.144424,49.341194 182.134262,58.151428 
	C182.114075,75.634819 182.121826,93.118256 182.139023,110.601654 
	C182.140610,112.221748 182.292480,113.841705 182.385437,115.676231 
	C187.273102,115.676231 191.818283,115.676231 196.871536,115.676231 
	C196.871536,103.399361 196.871536,91.449699 196.871704,78.500038 
M468.357025,61.971783 
	C464.901825,62.610565 459.468567,59.518822 459.922485,67.153374 
	C460.375488,74.772758 460.271240,74.273216 452.861664,73.897957 
	C448.138702,73.658768 447.712402,75.997871 447.931488,79.638290 
	C448.126373,82.876129 447.056732,86.393105 452.615295,86.122887 
	C460.673920,85.731140 460.387665,85.314857 459.877258,93.633011 
	C459.514832,99.538841 462.840240,98.899048 466.661865,99.089073 
	C471.033051,99.306442 473.422394,98.638725 473.108948,93.301743 
	C472.642609,85.360741 472.472900,85.739281 480.218109,86.126884 
	C485.053711,86.368881 485.196075,83.818947 485.058990,80.291702 
	C484.929871,76.968689 485.760010,73.613495 480.289337,73.898933 
	C472.471008,74.306847 472.940887,74.694443 473.001434,66.800507 
	C473.021759,64.153671 473.124908,61.583256 468.357025,61.971783 
M162.855911,51.432804 
	C162.973236,52.862103 163.090576,54.291401 163.200119,55.625751 
	C176.355148,57.526180 181.566360,54.502449 183.423492,44.231602 
	C176.717239,44.231602 170.007828,44.231602 162.855392,44.231602 
	C162.855392,46.560635 162.855392,48.517334 162.855911,51.432804 
z"/>
<path fill="#4495D8" opacity="1.000000" stroke="none" 
	d="
M69.853363,79.999840 
	C69.853264,67.874199 69.853264,56.248501 69.853264,44.240799 
	C74.668083,44.240799 79.047653,44.240799 83.861313,44.240799 
	C83.959480,45.928967 84.132339,47.535263 84.134109,49.141750 
	C84.153488,66.790848 84.157753,84.439987 84.140404,102.089088 
	C84.133614,109.000641 81.322372,113.119858 75.106529,115.475014 
	C69.041710,117.772942 63.796616,116.486221 59.507275,111.163902 
	C57.659145,108.870697 56.213737,106.154182 55.037880,103.434349 
	C48.637596,88.630020 42.378407,73.764694 35.306423,58.980846 
	C35.306423,77.715668 35.306423,96.450485 35.306423,115.591690 
	C30.177534,115.591690 25.611813,115.591690 20.386780,115.591690 
	C20.309832,114.182686 20.150284,112.603691 20.148624,111.024521 
	C20.130596,93.874924 20.123348,76.725288 20.142996,59.575691 
	C20.153357,50.532539 23.624399,45.764252 31.549946,43.777023 
	C38.301357,42.084198 44.353321,45.042137 47.893539,52.840710 
	C53.942810,66.166344 59.477650,79.725418 65.237175,93.182755 
	C66.391785,95.880554 67.584938,98.561852 69.853462,101.064621 
	C69.853462,94.209679 69.853462,87.354729 69.853363,79.999840 
z"/>
<path fill="#FFFFFF" opacity="1.000000" stroke="none" 
	d="
M227.013840,91.999985 
	C227.013901,81.350601 226.982910,71.201088 227.021790,61.051842 
	C227.071075,48.180107 231.279861,43.987839 244.060593,43.984818 
	C250.549530,43.983284 257.065704,43.621521 263.520447,44.093819 
	C271.451080,44.674114 278.602966,47.315590 282.103607,55.326786 
	C285.518158,63.140926 285.055847,70.529160 278.762482,76.940384 
	C278.438263,77.270653 278.330536,77.813393 277.995819,78.525703 
	C278.606934,79.173691 279.171753,79.954094 279.902893,80.519302 
	C286.044495,85.267082 289.295959,91.276581 287.734314,99.172737 
	C286.001801,107.932877 279.801361,113.411545 271.743073,114.282555 
	C257.770355,115.792831 243.603104,115.560951 229.513107,115.779617 
	C228.700851,115.792229 227.183273,113.321785 227.129944,111.962364 
	C226.875839,105.483353 227.014725,98.988914 227.013840,91.999985 
M269.230316,68.439735 
	C270.975281,61.537075 267.989716,56.717312 261.078308,56.154934 
	C255.791092,55.724716 250.434616,55.885612 245.128616,56.161587 
	C244.047211,56.217831 242.166702,57.947968 242.152878,58.927628 
	C241.955688,72.894234 241.965881,86.865021 242.117661,100.832726 
	C242.128922,101.868584 243.629608,103.796814 244.395279,103.775558 
	C252.161591,103.559898 259.981140,103.466667 267.652191,102.388596 
	C271.358795,101.867668 273.943268,98.525948 273.904663,94.361214 
	C273.869720,90.587120 271.494080,88.197449 268.004059,87.199257 
	C265.646362,86.524925 263.144562,86.123894 260.693909,86.051514 
	C255.113098,85.886696 249.524124,85.999519 243.752136,85.999519 
	C247.607056,74.953102 250.022339,73.401276 260.293091,72.841629 
	C263.216187,72.682335 266.025879,70.441582 269.230316,68.439735 
z"/>
<path fill="#FFFFFF" opacity="1.000000" stroke="none" 
	d="
M307.104980,112.024307 
	C299.565460,105.964745 295.237854,98.839294 295.885040,89.039375 
	C296.334167,82.238052 295.948608,75.383072 295.977753,68.552238 
	C296.034454,55.252892 307.762726,43.071762 321.072174,43.101601 
	C328.295288,43.117798 335.828766,43.072151 342.665924,45.013565 
	C353.351898,48.047855 359.675232,56.373188 360.644043,67.309265 
	C361.459076,76.509422 361.130157,85.966568 359.983978,95.144646 
	C358.610565,106.142235 348.594757,115.696510 337.435425,116.710457 
	C327.241516,117.636658 316.723663,118.324379 307.104980,112.024307 
M346.014893,85.432640 
	C346.013733,79.947357 346.074646,74.461174 345.994781,68.977043 
	C345.905975,62.879536 342.189423,57.620281 336.253662,56.040611 
	C332.957855,55.163498 329.385437,55.091225 325.935425,55.072102 
	C315.842590,55.016159 310.084625,60.738098 310.008911,70.702011 
	C309.962189,76.851814 309.971436,83.002434 310.007111,89.152390 
	C310.057190,97.784348 314.469147,103.632393 323.054810,104.671616 
	C334.584961,106.067238 341.918060,104.234268 345.195068,95.230530 
	C346.172516,92.544914 345.779846,89.360626 346.014893,85.432640 
z"/>
<path fill="#4394D8" opacity="1.000000" stroke="none" 
	d="
M154.857635,44.057182 
	C153.551697,47.729530 152.100540,51.407726 150.062958,54.725811 
	C149.454834,55.716095 147.209366,56.063240 145.706146,56.082367 
	C136.380737,56.201035 127.053078,56.142353 117.726158,56.142517 
	C116.100014,56.142548 114.473877,56.142517 112.497040,56.142517 
	C112.497040,62.207226 112.497040,67.763512 112.497040,73.978531 
	C123.667679,73.978531 134.720490,73.978531 145.471771,73.978531 
	C145.889740,74.923447 146.106735,75.208725 146.137283,75.512749 
	C147.220856,86.295547 147.218414,86.295380 136.614471,86.295990 
	C129.785843,86.296379 122.955208,86.395180 116.129478,86.255020 
	C113.103882,86.192894 111.958900,87.296242 112.097710,90.337242 
	C112.286583,94.475288 112.144783,98.628426 112.144783,103.704170 
	C115.780441,103.704170 119.034256,103.704163 122.288071,103.704163 
	C129.616364,103.704170 136.958298,103.972130 144.267654,103.600052 
	C148.410080,103.389183 150.801620,104.775368 152.282608,108.524658 
	C153.184982,110.809097 154.520065,112.922615 156.122818,116.000084 
	C152.586639,116.000084 149.703201,116.000107 146.819763,116.000076 
	C135.327667,115.999954 123.835434,116.034607 112.343521,115.988869 
	C102.874352,115.951164 97.776840,110.968864 97.726364,101.563332 
	C97.648590,87.073715 97.662758,72.583206 97.721504,58.093414 
	C97.758194,49.045029 102.797691,43.963356 112.019554,43.896305 
	C126.174843,43.793381 140.331696,43.904736 154.857635,44.057182 
z"/>
<path fill="#FFFFFF" opacity="1.000000" stroke="none" 
	d="
M417.518311,80.658493 
	C425.213409,92.318275 432.769928,103.659210 440.955627,115.944427 
	C435.437500,115.944427 430.722717,116.214035 426.073792,115.779587 
	C424.685242,115.649826 423.178864,113.747620 422.243591,112.318947 
	C417.872406,105.641869 413.706390,98.830872 409.409454,92.104515 
	C408.359863,90.461494 407.092957,88.957306 405.358002,86.626144 
	C401.617218,92.227180 398.236511,97.269066 394.881561,102.328026 
	C394.147186,103.435432 393.542450,104.628494 392.813965,105.740158 
	C385.293304,117.217018 385.289642,117.214622 370.394135,115.571152 
	C375.660034,107.438942 380.699890,99.500549 385.896729,91.666306 
	C393.859650,79.662186 393.891327,79.701813 386.109192,67.663704 
	C381.242493,60.135517 376.426544,52.574543 370.955231,44.041710 
	C376.548950,44.041710 381.249939,43.862564 385.918030,44.174923 
	C387.006805,44.247780 388.240875,45.828671 388.970428,46.990528 
	C393.568420,54.313133 398.032837,61.719494 402.568329,69.081558 
	C403.324097,70.308342 404.211731,71.453903 405.491699,73.285675 
	C410.414215,65.384094 415.387299,58.325657 419.342957,50.736866 
	C422.122192,45.404961 425.479797,42.936283 431.458588,43.924286 
	C433.680634,44.291477 436.014252,43.983658 439.469604,43.983658 
	C431.724091,56.731426 424.551941,68.535530 417.518311,80.658493 
z"/>
<path fill="#4696D8" opacity="1.000000" stroke="none" 
	d="
M196.871613,79.000031 
	C196.871536,91.449699 196.871536,103.399361 196.871536,115.676231 
	C191.818283,115.676231 187.273102,115.676231 182.385437,115.676231 
	C182.292480,113.841705 182.140610,112.221748 182.139023,110.601654 
	C182.121826,93.118256 182.114075,75.634819 182.134262,58.151428 
	C182.144424,49.341194 187.099487,44.115486 195.897690,43.896793 
	C202.868332,43.723530 209.846710,43.861919 217.235413,43.861919 
	C217.235413,47.949348 217.235413,51.663891 217.235413,56.048561 
	C210.621918,56.048561 204.071152,56.048561 196.871704,56.048561 
	C196.871704,63.961685 196.871704,71.230858 196.871613,79.000031 
z"/>
<path fill="#FFFFFF" opacity="1.000000" stroke="none" 
	d="
M468.820374,61.973511 
	C473.124908,61.583256 473.021759,64.153671 473.001434,66.800507 
	C472.940887,74.694443 472.471008,74.306847 480.289337,73.898933 
	C485.760010,73.613495 484.929871,76.968689 485.058990,80.291702 
	C485.196075,83.818947 485.053711,86.368881 480.218109,86.126884 
	C472.472900,85.739281 472.642609,85.360741 473.108948,93.301743 
	C473.422394,98.638725 471.033051,99.306442 466.661865,99.089073 
	C462.840240,98.899048 459.514832,99.538841 459.877258,93.633011 
	C460.387665,85.314857 460.673920,85.731140 452.615295,86.122887 
	C447.056732,86.393105 448.126373,82.876129 447.931488,79.638290 
	C447.712402,75.997871 448.138702,73.658768 452.861664,73.897957 
	C460.271240,74.273216 460.375488,74.772758 459.922485,67.153374 
	C459.468567,59.518822 464.901825,62.610565 468.820374,61.973511 
z"/>
<path fill="#4395D8" opacity="1.000000" stroke="none" 
	d="
M162.855652,50.953423 
	C162.855392,48.517334 162.855392,46.560635 162.855392,44.231602 
	C170.007828,44.231602 176.717239,44.231602 183.423492,44.231602 
	C181.566360,54.502449 176.355148,57.526180 163.200119,55.625751 
	C163.090576,54.291401 162.973236,52.862103 162.855652,50.953423 
z"/>
</svg>